<svg version="1.1" xmlns="http://www.w3.org/2000/svg" style="display: block;" viewBox="0 0 2048 1824" width="1024" height="912" preserveAspectRatio="none">
<defs>
	<linearGradient id="Gradient1" gradientUnits="userSpaceOnUse" x1="1303.58" y1="822.688" x2="1375.56" y2="751.518">
		<stop class="stop0" offset="0" stop-opacity="1" stop-color="rgb(51,137,179)"/>
		<stop class="stop1" offset="1" stop-opacity="1" stop-color="rgb(64,161,185)"/>
	</linearGradient>
	<linearGradient id="Gradient2" gradientUnits="userSpaceOnUse" x1="1352.63" y1="767.502" x2="1451.89" y2="678.529">
		<stop class="stop0" offset="0" stop-opacity="1" stop-color="rgb(58,152,181)"/>
		<stop class="stop1" offset="1" stop-opacity="1" stop-color="rgb(93,195,181)"/>
	</linearGradient>
	<linearGradient id="Gradient3" gradientUnits="userSpaceOnUse" x1="891.698" y1="690.26" x2="1048" y2="525.224">
		<stop class="stop0" offset="0" stop-opacity="1" stop-color="rgb(100,203,182)"/>
		<stop class="stop1" offset="1" stop-opacity="1" stop-color="rgb(112,226,182)"/>
	</linearGradient>
	<linearGradient id="Gradient4" gradientUnits="userSpaceOnUse" x1="1395.43" y1="725.123" x2="1517.76" y2="592.908">
		<stop class="stop0" offset="0" stop-opacity="1" stop-color="rgb(84,186,180)"/>
		<stop class="stop1" offset="1" stop-opacity="1" stop-color="rgb(114,223,183)"/>
	</linearGradient>
	<linearGradient id="Gradient5" gradientUnits="userSpaceOnUse" x1="789.847" y1="1080.69" x2="1153.21" y2="816.926">
		<stop class="stop0" offset="0" stop-opacity="1" stop-color="rgb(112,142,181)"/>
		<stop class="stop1" offset="1" stop-opacity="1" stop-color="rgb(160,203,211)"/>
	</linearGradient>
	<linearGradient id="Gradient6" gradientUnits="userSpaceOnUse" x1="549.792" y1="960.483" x2="969.816" y2="660.368">
		<stop class="stop0" offset="0" stop-opacity="1" stop-color="rgb(108,135,178)"/>
		<stop class="stop1" offset="1" stop-opacity="1" stop-color="rgb(159,205,211)"/>
	</linearGradient>
	<linearGradient id="Gradient7" gradientUnits="userSpaceOnUse" x1="1278.35" y1="1548.36" x2="1541.37" y2="1016.71">
		<stop class="stop0" offset="0" stop-opacity="1" stop-color="rgb(56,148,184)"/>
		<stop class="stop1" offset="1" stop-opacity="1" stop-color="rgb(102,207,182)"/>
	</linearGradient>
	<linearGradient id="Gradient8" gradientUnits="userSpaceOnUse" x1="129.577" y1="1166.26" x2="915.22" y2="851.321">
		<stop class="stop0" offset="0" stop-opacity="1" stop-color="rgb(44,133,183)"/>
		<stop class="stop1" offset="1" stop-opacity="1" stop-color="rgb(103,200,184)"/>
	</linearGradient>
	<linearGradient id="Gradient9" gradientUnits="userSpaceOnUse" x1="1197.01" y1="1041.85" x2="863.194" y2="1560.45">
		<stop class="stop0" offset="0" stop-opacity="1" stop-color="rgb(107,205,181)"/>
		<stop class="stop1" offset="1" stop-opacity="1" stop-color="rgb(38,134,189)"/>
	</linearGradient>
	<linearGradient id="Gradient10" gradientUnits="userSpaceOnUse" x1="1051.44" y1="1522.08" x2="1417.85" y2="885.15">
		<stop class="stop0" offset="0" stop-opacity="1" stop-color="rgb(37,127,181)"/>
		<stop class="stop1" offset="1" stop-opacity="1" stop-color="rgb(111,214,183)"/>
	</linearGradient>
	<linearGradient id="Gradient11" gradientUnits="userSpaceOnUse" x1="417.414" y1="1512.49" x2="877.706" y2="1133.36">
		<stop class="stop0" offset="0" stop-opacity="1" stop-color="rgb(70,117,167)"/>
		<stop class="stop1" offset="1" stop-opacity="1" stop-color="rgb(157,185,202)"/>
	</linearGradient>
</defs>
<path transform="translate(0,0)" fill="rgb(252,255,254)" d="M 0 0 L 2048 0 L 2048 1824 L 0 1824 L 0 0 z"/>
<path transform="translate(0,0)" fill="url(#Gradient11)" d="M 462.097 908.491 C 483.2 921.749 513.142 935.081 535.734 947.009 C 551.248 955.2 566.69 963.23 582.049 971.791 C 593.223 978.021 605.674 982.914 616.399 990.037 C 617.202 1007.45 616.279 1025.48 616.521 1042.92 C 617.114 1085.52 615.485 1129.66 616.468 1172.11 C 629.533 1172.24 643.069 1172.55 656.082 1172.1 C 667.813 1179.39 699.27 1212.7 708.943 1224.55 C 709.718 1161.45 707.966 1098.7 709.127 1035.09 C 751.576 1055.82 793.743 1078.89 835.414 1101.19 C 847.433 1107.63 861.457 1114.92 872.548 1122.69 C 873.75 1145.56 873.034 1172.72 873.029 1196.01 L 873.01 1321.05 L 873.08 1705.05 C 861.442 1699.09 851.082 1692.17 839.908 1685.44 C 825.019 1676.6 810.047 1667.91 794.994 1659.35 L 573.683 1531.69 L 507.025 1493.15 C 499.689 1488.86 470.104 1470.39 464.106 1469.16 C 440.352 1464.33 410.664 1470.64 384.612 1466.38 C 382.538 1464.28 378.93 1463.21 376.056 1462.08 C 373.978 1457.21 376.593 1461.97 376.999 1456.47 L 374.875 1456.38 C 373.138 1441.43 397.63 1443.11 404.68 1436.42 C 409.686 1431.67 414.406 1420.57 418.687 1413.73 C 417.433 1412.49 416.067 1411.59 414.566 1410.67 L 420.429 1408.89 C 434.185 1408.47 447.944 1408.14 461.704 1407.9 L 461.603 1054.94 C 461.809 1006.16 460.21 957.196 462.097 908.491 z"/>
<path transform="translate(0,0)" fill="url(#Gradient10)" d="M 1181.8 954.655 C 1163.2 931.16 1152.06 906.91 1156.66 876.498 C 1168.65 797.712 1259.44 765.285 1311.45 830.274 C 1327.29 850.063 1334 880.068 1329.4 904.762 C 1319.39 958.552 1281.6 987.874 1228.54 980.753 C 1206.19 1046.56 1189.09 1116.3 1167.07 1181.54 C 1185.59 1194.4 1193.63 1200.04 1205.47 1219.86 C 1262.06 1203.88 1296.18 1195.89 1355.7 1201.06 C 1374.59 1165.76 1411.7 1147.69 1449 1169.04 C 1500.37 1198.45 1491.49 1286.61 1430.99 1299.88 C 1394.36 1307.96 1368.77 1289.15 1353.43 1256.09 C 1293.58 1252.59 1274.15 1257.01 1217.1 1272.37 C 1211.42 1299.98 1203.77 1326.07 1179.08 1343.58 C 1171.06 1349.27 1155.77 1352.17 1154.49 1361.1 C 1152.77 1373.18 1153.28 1389.19 1153.22 1401.48 L 1153.11 1514.55 C 1153.11 1529.22 1153.33 1545.93 1152.88 1560.76 C 1152.8 1563.09 1151.8 1563.2 1150.15 1564.32 C 1144.97 1568.82 1110.63 1586.91 1102.43 1591.42 C 1103.41 1572.64 1101.92 1549.58 1102.82 1528.75 C 1100.39 1473.19 1104.25 1412.91 1102.06 1356.58 C 1085.65 1350.2 1077.21 1345.92 1064.65 1333.01 C 1021.5 1288.67 1034.87 1202.39 1094.16 1179.31 C 1101.75 1176.36 1109.7 1173.97 1117.6 1171.59 C 1122.23 1151.15 1129.11 1130.89 1135.26 1110.83 L 1156.06 1041.48 C 1164.11 1015.11 1172.84 980.033 1181.8 954.655 z"/>
<path transform="translate(0,0)" fill="rgb(44,137,185)" d="M 1102.82 1528.75 C 1103.8 1533.3 1103.22 1534.26 1106.15 1537.16 C 1131.24 1543.47 1125.36 1565.02 1134.46 1569.31 C 1141.97 1568.18 1143.66 1564.16 1150.15 1564.32 C 1144.97 1568.82 1110.63 1586.91 1102.43 1591.42 C 1103.41 1572.64 1101.92 1549.58 1102.82 1528.75 z"/>
<path transform="translate(0,0)" fill="rgb(252,255,254)" d="M 1122.85 1229.32 C 1143.26 1226.68 1161.99 1240.95 1164.87 1261.33 C 1167.74 1281.71 1153.69 1300.61 1133.35 1303.72 C 1119.98 1305.77 1106.53 1300.47 1098.16 1289.85 C 1089.78 1279.22 1087.76 1264.92 1092.87 1252.39 C 1097.98 1239.86 1109.43 1231.05 1122.85 1229.32 z"/>
<path transform="translate(0,0)" fill="rgb(252,255,254)" d="M 1234.17 852.164 C 1286.61 845.119 1293.07 913.689 1251.18 927.658 C 1245.1 927.995 1239.17 928.539 1233.48 926.481 C 1206.38 916.671 1198.67 882.456 1219.45 861.99 C 1224.88 856.646 1227.63 855.253 1234.17 852.164 z"/>
<path transform="translate(0,0)" fill="url(#Gradient9)" d="M 908.922 1472.56 L 908.733 1270.01 C 908.576 1225.86 908.299 1181.21 908.799 1137.03 C 908.83 1134.28 909.85 1121.83 911.554 1120.51 C 921.044 1113.16 937.034 1105.55 947.569 1099.61 C 1010.14 1064.52 1073.06 1030.06 1136.33 996.235 L 1107.45 1090.63 C 1103.21 1104.72 1096.67 1129.86 1091.7 1142.97 C 999.329 1169.96 975.385 1299.88 1046.08 1363.1 C 1053.45 1369.69 1062.37 1375.8 1069.21 1382.73 L 1069.38 1541.44 C 1069.36 1555.81 1070.7 1596.77 1068.87 1609.23 C 1064.21 1613.41 1015.82 1642.71 1010.09 1644.63 C 997.388 1653.75 969.649 1667.95 955.507 1676.78 C 946.927 1682.14 915.521 1700.55 907.679 1703.4 C 909.64 1674.47 908.701 1642.47 908.663 1613.24 L 908.922 1472.56 z"/>
<path transform="translate(0,0)" fill="rgb(44,137,185)" d="M 908.922 1472.56 C 909.499 1473.5 910.986 1476.23 911.007 1477.17 C 911.31 1490.6 913.456 1502.25 916.309 1515.32 L 916.439 1514.82 C 916.708 1518.78 917.047 1522.72 917.048 1526.7 L 918.057 1527.07 C 919.027 1524.23 919.037 1524.15 919.301 1521.16 L 920.864 1522.53 L 922.882 1520.78 L 926.458 1531.28 L 927.242 1531.64 C 927.337 1531.17 928.666 1523.31 928.454 1523.85 L 929.393 1527.05 L 930.918 1527.58 C 932.936 1522.56 930.414 1518.88 932.713 1513.14 L 934.737 1512.32 C 940.171 1514.78 945.621 1524.23 950.44 1528.3 C 952.991 1530.45 955.983 1537.5 957.537 1540.79 L 962.428 1540.63 L 963.514 1541.5 C 972.408 1548.42 983.102 1544.71 984.767 1556.07 C 983.769 1557.98 980.588 1562.66 981.112 1563.7 C 983.305 1568.06 988.698 1572.23 991.935 1576.51 C 1002.93 1575.88 1017.1 1580 1025.04 1586.74 C 1032.07 1592.7 1042.29 1591.05 1039.94 1606.03 C 1039.6 1609.64 1038.96 1610.39 1036.28 1612.3 C 1027.44 1613.48 1015.28 1606.77 1009.4 1607.75 C 1006.98 1611.21 1007.61 1621.78 1006.72 1622.91 C 1001.8 1629.13 993.879 1634.25 992.222 1642.81 C 994.804 1651.28 1004.92 1644.71 1010.09 1644.63 C 997.388 1653.75 969.649 1667.95 955.507 1676.78 C 946.927 1682.14 915.521 1700.55 907.679 1703.4 C 909.64 1674.47 908.701 1642.47 908.663 1613.24 L 908.922 1472.56 z"/>
<path transform="translate(0,0)" fill="url(#Gradient8)" d="M 739.039 527.38 C 751.569 522.916 769.174 509.701 783.763 506.447 C 781.684 511.705 780.539 507.261 780.037 510.085 C 777.998 521.547 785.081 524.806 783.251 536.796 C 780.165 557.019 762.796 550.515 768.277 572.292 C 768.693 573.946 769.912 575.338 770.667 578.059 C 726.134 603.614 689.82 641.436 665.889 687.306 C 657.216 703.932 650.345 727.285 642.146 742.87 C 594.616 725.586 542.195 727.684 496.198 748.711 C 448.675 770.324 407.189 814.961 389.202 864.051 C 373.427 908.37 370.747 956.295 381.481 1002.1 C 366.442 1008.16 350.514 1012.01 336.078 1019.27 C 314.32 1030.21 295.386 1045.45 278.564 1062.83 C 179.563 1165.13 215.193 1345.01 349.509 1396.83 C 374.96 1406.65 393.999 1407.94 420.429 1408.89 L 414.566 1410.67 C 416.067 1411.59 417.433 1412.49 418.687 1413.73 C 414.406 1420.57 409.686 1431.67 404.68 1436.42 C 397.63 1443.11 373.138 1441.43 374.875 1456.38 L 376.999 1456.47 C 376.593 1461.97 373.978 1457.21 376.056 1462.08 C 378.93 1463.21 382.538 1464.28 384.612 1466.38 C 351.788 1462.84 320.152 1452.09 291.964 1434.9 C 233.584 1399.3 191.372 1342.36 174.283 1276.15 C 172.306 1267.44 171.202 1259.93 169.908 1251.14 C 161.525 1218.33 166.752 1160.38 176.579 1128.68 C 192.856 1076.16 224.524 1025.03 269.214 992.253 C 285.334 980.429 302.084 971.377 319.713 962.058 C 317.951 947.163 318.912 927.043 320.519 912.01 C 327.551 839.608 363.396 773.073 419.99 727.371 C 474.131 683.755 539.083 663.709 608.416 671.075 C 627.367 633.959 674.418 566.282 710.919 546.525 C 716.51 541.37 732.142 531.778 739.039 527.38 z"/>
<path transform="translate(0,0)" fill="rgb(96,201,182)" d="M 739.039 527.38 C 736.589 531.115 736.825 531.925 736.988 536.396 C 735.563 538.861 735.62 539.22 733.135 540.699 C 730.896 540.44 728.092 540.115 724.723 539.725 C 718.965 542.078 717.239 545.578 710.919 546.525 C 716.51 541.37 732.142 531.778 739.039 527.38 z"/>
<path transform="translate(0,0)" fill="rgb(9,72,98)" d="M 169.908 1251.14 C 177.152 1254.64 175.462 1269.28 174.283 1276.15 C 172.306 1267.44 171.202 1259.93 169.908 1251.14 z"/>
<path transform="translate(0,0)" fill="url(#Gradient7)" d="M 1319.15 1407.18 C 1362.58 1410.65 1397.76 1404.85 1436.27 1382.87 C 1542.88 1322.01 1565.12 1165.05 1485.32 1072.41 C 1475.08 1060.45 1463.44 1049.77 1450.65 1040.59 C 1437.92 1031.51 1415.41 1021.92 1406.49 1009.84 C 1399.97 1001.01 1403.2 977.164 1413.08 971.271 C 1419.58 966.347 1425.78 963.674 1434.09 964.856 C 1467.2 971.277 1514.94 1012.49 1533.76 1038.12 C 1580.68 1102.04 1597.88 1174.78 1585.93 1252.67 C 1574.53 1322.66 1535.91 1385.29 1478.49 1426.89 C 1445.76 1450.59 1399.16 1467.12 1358.81 1468.01 C 1347.75 1468.26 1321.86 1466.26 1312.78 1470.6 C 1289.53 1481.71 1265.99 1497.63 1243.4 1510.47 C 1240.6 1512.06 1228.08 1519.74 1226.04 1520.45 C 1216.98 1526.63 1196.06 1539.1 1186.03 1542.27 C 1186.04 1525.04 1186.17 1507.82 1186.41 1490.6 C 1186.49 1457.9 1184.8 1414.51 1186.54 1383.14 C 1201.18 1368.31 1211.5 1364.77 1225.3 1345.2 C 1235.87 1330.21 1241.11 1314.93 1247.44 1302.76 C 1252.51 1293.02 1306.17 1289.64 1318.39 1289.09 C 1319.49 1327.93 1317.24 1368.69 1319.15 1407.18 z"/>
<path transform="translate(0,0)" fill="rgb(44,137,185)" d="M 1186.41 1490.6 L 1187.89 1484.23 C 1192.83 1485.85 1190.19 1490.85 1196.47 1487.81 C 1211.92 1499.88 1213.3 1500.72 1219.75 1519.17 L 1226.04 1520.45 C 1216.98 1526.63 1196.06 1539.1 1186.03 1542.27 C 1186.04 1525.04 1186.17 1507.82 1186.41 1490.6 z"/>
<path transform="translate(0,0)" fill="url(#Gradient6)" d="M 888.908 667.825 C 891.2 667.833 893.523 668.745 895.526 669.846 C 938.903 693.673 983.41 716.023 1027.19 738.97 C 1028.64 739.728 1028.29 740.146 1028.39 741.678 C 1024.3 745.166 1006.74 754.225 1000.66 757.699 C 963.994 778.653 925.999 798.109 888.692 817.971 L 760.493 886.995 C 742.491 896.837 644.449 953.142 631.586 955.341 C 585.292 930.32 533.73 906.622 488.617 881.341 C 506.955 870.586 528.01 860.132 546.965 849.918 C 589.563 826.463 632.495 803.618 675.747 781.39 L 888.908 667.825 z"/>
<path transform="translate(0,0)" fill="url(#Gradient5)" d="M 1121.92 789.805 C 1127.47 791.002 1145.01 802.856 1150 807.334 C 1147.63 809.715 1145.48 812.317 1143.6 815.104 C 1123.87 844.867 1117.55 884.578 1126 919.123 C 1128.93 931.114 1134.25 942.719 1136.69 954.606 C 1117.49 967.257 1088.83 980.821 1068.1 992.176 C 1009.96 1024.01 948.301 1055.18 890.946 1088.19 C 866.203 1076.11 837.186 1060.05 812.781 1046.93 C 795.452 1037.25 738.758 1010.95 727.813 1000.1 C 750.398 991.439 766.425 980.381 787.279 969.246 C 810.897 956.635 834.267 943.676 857.79 930.978 L 1121.92 789.805 z"/>
<path transform="translate(0,0)" fill="url(#Gradient4)" d="M 1240.88 470.275 C 1287.84 466.857 1350.85 483.216 1393.55 503.053 C 1472.5 539.73 1541.91 602.651 1582.81 680.04 C 1593.03 699.373 1601.27 720.313 1608.74 740.84 C 1619.69 770.956 1645.7 874.836 1631.58 902.706 C 1627.98 909.806 1620.67 912.94 1613.48 915.119 C 1589.08 916.344 1581.83 901.146 1581.21 879.982 C 1576.21 709.378 1454.72 554.172 1281.65 530.513 C 1267.76 528.614 1241.97 530.583 1230.69 523.39 C 1224.17 519.281 1219.66 512.645 1218.23 505.071 C 1215 488.082 1223.69 473.589 1240.88 470.275 z"/>
<path transform="translate(0,0)" fill="url(#Gradient3)" d="M 783.763 506.447 C 800.337 498.628 819.139 494.527 836.985 491.162 C 952.238 469.432 1072.58 521.817 1139.12 617.615 C 1153.84 638.8 1166.42 657.704 1173.1 683.503 C 1168.77 700.104 1159.41 719.9 1138.3 713.911 C 1116.72 706.289 1108.29 677.094 1096.55 659.26 C 1078.69 632.136 1060.81 616.824 1036.14 597.514 C 961.585 539.163 853.206 530.796 770.667 578.059 C 769.912 575.338 768.693 573.946 768.277 572.292 C 762.796 550.515 780.165 557.019 783.251 536.796 C 785.081 524.806 777.998 521.547 780.037 510.085 C 780.539 507.261 781.684 511.705 783.763 506.447 z"/>
<path transform="translate(0,0)" fill="url(#Gradient2)" d="M 1245.8 580.377 C 1295.12 576.771 1361.24 603.303 1401.64 631.633 C 1468.68 679.224 1514.08 751.482 1527.87 832.531 C 1531.02 850.642 1538.4 891.16 1527.21 906.336 C 1521.87 913.576 1512.9 914.803 1504.72 916.098 C 1499.88 914.994 1495.27 913.019 1491.13 910.269 C 1487.18 907.596 1481.86 901.636 1480.84 897.218 C 1476.52 878.525 1478.99 862.554 1475.04 842.545 C 1456.81 745.304 1386.46 663.25 1287.82 642.335 C 1270.44 638.649 1255.68 637.36 1238.01 636.165 C 1228.1 635.494 1218.9 621.802 1217.49 611.952 C 1216.42 604.346 1218.5 596.633 1223.26 590.602 C 1229.97 582.119 1236.13 581.286 1245.8 580.377 z"/>
<path transform="translate(0,0)" fill="url(#Gradient1)" d="M 1237.94 690.122 C 1265.1 689.49 1280.66 691.47 1307.01 701.311 C 1352.29 718.234 1393.68 759.328 1412.91 803.8 C 1423.13 827.453 1436.69 874.859 1428 899.989 C 1425.09 908.405 1417.73 912.848 1409.71 915.927 C 1370.72 918.175 1379.38 884.916 1373.76 859.333 C 1370.57 844.843 1365.42 830.854 1358.47 817.747 C 1341.75 786.762 1305.86 757.025 1269.68 750.253 C 1247.22 746.05 1209.67 752.127 1220.47 707.615 C 1222.43 699.534 1230.18 693.565 1237.94 690.122 z"/>
<path transform="translate(0,0)" fill="rgb(96,201,182)" d="M 1316.79 991.813 C 1317.29 992.34 1317.79 992.868 1318.28 993.396 C 1318.22 1041.34 1319.57 1122.92 1318.61 1167.46 C 1284.83 1167.66 1258.5 1171.12 1226.02 1179.91 C 1223.13 1180.69 1221.51 1178.83 1219.43 1177.17 C 1214.07 1171.83 1211.65 1168.84 1208.01 1162.37 C 1215.28 1131.59 1226.71 1097.6 1235.68 1067.04 C 1240.11 1051.95 1245.09 1033.48 1250.02 1019.16 C 1257.73 1015.52 1269.63 1014.59 1277.75 1011.94 C 1290.9 1007.65 1304.78 998.794 1316.79 991.813 z"/>
</svg>